Simulation
nRows=15
nColumns=15
endheader
time  TH_x TH_y TH_z SC_y  SC_z  SC_x  AC_y  AC_z  AC_x  GH_y  GH_z  GH_yy  EL_x  PS_y
5.382082397003745  0.000000  0.000000  0.000000  -32.33433938781106  12.137115120811009  19.880179513499417  54.76037848766721  17.777796821864168  15.259282040551966  -4.6842957155515546  60.788483729920145  7.579782404227642  13.466420878870414  120.000000
5.422247191011236  0.000000  0.000000  0.000000  -32.27677273427677  12.032056319476517  19.85595023932933  54.77050066117135  17.72262771036993  14.98848746221754  -4.498758043843334  60.841108567034546  7.25021503026524  13.487191486959027  120.000000
5.4624119850187265  0.000000  0.000000  0.000000  -32.09776565302633  11.91342863227617  19.687295324352693  54.7804623400653  17.651436265995738  14.623443358011182  -4.309807909669447  60.63211048034517  7.003515693559499  13.427488570094072  120.000000
5.502576779026217  0.000000  0.000000  0.000000  -31.79730180778078  11.780583851695585  19.36813224663284  54.79579011936227  17.561028516133867  14.165940680855385  -4.121573472060284  60.14469580492683  6.829625770806371  13.303370346417381  120.000000
5.542741573033708  0.000000  0.000000  0.000000  -31.378916187869418  11.631104622434814  18.895267893718056  54.82219542124685  17.447551418423707  13.62105378522731  -3.9390537623436948  59.365529343825024  6.715994185981171  13.137019719980486  120.000000
5.582906367041199  0.000000  0.000000  0.000000  -30.85034351372122  11.460959879798716  18.268603100324817  54.86467383487541  17.306405240000185  12.997141184268322  -3.766538141526016  58.2870678798867  6.650244748138563  12.95272870135282  120.000000
5.623071161048689  0.000000  0.000000  0.000000  -30.224012524400866  11.264862214219223  17.491292253736166  54.926651556867824  17.132505118496205  12.305711869960067  -3.6062625138307225  56.90969073842151  6.6228862880708865  12.772752514978135  120.000000
5.66323595505618  0.000000  0.000000  0.000000  -29.517086978543258  11.036867341775947  16.570052474689522  55.009428155194215  16.920601340583282  11.56119616977418  -3.4575540475020707  55.24324852289542  6.629499909994114  12.613933762854103  120.000000
5.70340074906367  0.000000  0.000000  0.000000  -28.750820534456125  10.771057204133095  15.515344974285135  55.112078093644314  16.66585074947962  10.780779305206565  -3.3165492756539927  53.307493292426926  6.671856342338734  12.485903733839821  120.000000
5.743565543071161  0.000000  0.000000  0.000000  -27.94920607280635  10.462267458564519  14.341484243980522  55.23177853236334  16.364366474156725  9.984109394821289  -3.1765622178035002  51.1311736803859  6.757877607798819  12.39113341683747  120.000000
5.7837303370786515  0.000000  0.000000  0.000000  -27.137238834262217  10.106818827678298  13.066372935111474  55.364486224252076  16.01388470522834  9.192695863399791  -3.0290329311207587  48.750001505880576  6.900708830828822  12.326295747422849  120.000000
5.823895131086142  0.000000  0.000000  0.000000  -26.339234671282984  9.703281177946977  11.710952739487734  55.505782161712936  15.614327649285643  8.428885955757352  -2.8649746728794483  46.203996946127816  7.11743209923359  12.284249342529618  120.000000
5.864059925093633  0.000000  0.000000  0.000000  -25.577455096942597  9.253159539290552  10.298322507642123  55.651658799079314  15.168187976159789  7.714377953908055  -2.6767775859564438  43.53468916008366  7.427821306622109  12.256085686018457  120.000000
5.904224719101124  0.000000  0.000000  0.000000  -24.8712759043684  8.76128985419825  8.852621894074282  55.79905518642452  14.680572587136476  7.068740484474009  -2.460219163600598  40.78256901122529  7.853451663597965  12.232907909986105  120.000000
5.944389513108614  0.000000  0.000000  0.000000  -24.236735109910878  8.235880689678744  7.3980171767570315  55.946048440638414  14.158918886043912  6.508085286515388  -2.216344703947989  37.98522156258246  8.417239908998397  12.20718093046522  120.000000
